<svg width="84" height="76" viewBox="0 0 84 76" fill="none" xmlns="http://www.w3.org/2000/svg">
<path d="M1.8125 74.375H29.9375C33.9549 74.375 37.8821 73.1837 41.2225 70.9517C44.5629 68.7198 47.1664 65.5474 48.7038 61.8358C50.2412 58.1241 50.6435 54.04 49.8597 50.0997C49.0759 46.1595 47.1414 42.5402 44.3006 39.6994C41.4598 36.8586 37.8405 34.9241 33.9003 34.1403C29.96 33.3565 25.8759 33.7588 22.1642 35.2962C18.4526 36.8336 15.2802 39.4371 13.0483 42.7775C10.8163 46.1179 9.625 50.0451 9.625 54.0625C9.625 68.125 1.8125 74.375 1.8125 74.375Z" stroke="white" stroke-width="3" stroke-linecap="round" stroke-linejoin="round"/>
<path d="M37.9058 35.3906C45.4058 25.2734 64.4683 2.10938 81.8901 2.10938C81.8901 19.5312 58.7261 38.5938 48.6089 46.0938" stroke="white" stroke-width="3" stroke-linecap="round" stroke-linejoin="round"/>
<path d="M45.9531 25.3916C51.246 28.3787 55.6223 32.755 58.6094 38.0479" stroke="white" stroke-width="3" stroke-linecap="round" stroke-linejoin="round"/>
</svg>
