<svg width="76" height="77" viewBox="0 0 76 77" fill="none" xmlns="http://www.w3.org/2000/svg">
<path d="M2.33554 58.5774L11.7887 5.02272C11.8547 4.61853 12.0006 4.23153 12.2178 3.88428C12.4349 3.53703 12.719 3.23648 13.0535 3.00016C13.388 2.76383 13.7662 2.59645 14.166 2.50777C14.5659 2.4191 14.9794 2.4109 15.3824 2.48366L36.9449 6.27272C37.7596 6.42505 38.482 6.89096 38.9568 7.57028C39.4316 8.24961 39.6209 9.08811 39.484 9.90553L29.9918 63.7727C29.3417 67.3999 27.2977 70.6285 24.2972 72.7676C21.2966 74.9066 17.578 75.7862 13.9371 75.218C6.16367 73.968 0.968355 66.3508 2.33554 58.5774Z" stroke="white" stroke-width="3" stroke-linecap="round" stroke-linejoin="round"/>
<path d="M34.21 39.7501L62.6865 29.3985C63.0737 29.2556 63.4853 29.1907 63.8977 29.2077C64.31 29.2247 64.7149 29.3232 65.089 29.4976C65.4631 29.6719 65.7989 29.9186 66.0771 30.2234C66.3553 30.5282 66.5704 30.8851 66.71 31.2735L74.21 51.8204C74.4866 52.5976 74.4447 53.4526 74.0935 54.199C73.7422 54.9454 73.1101 55.5226 72.335 55.8048L20.9287 74.5157" stroke="white" stroke-width="3" stroke-linecap="round" stroke-linejoin="round"/>
<path d="M73.9375 54.4766V72.25C73.9375 73.0788 73.6083 73.8737 73.0222 74.4597C72.4362 75.0458 71.6413 75.375 70.8125 75.375H16.125" stroke="white" stroke-width="3" stroke-linecap="round" stroke-linejoin="round"/>
<path d="M16.125 66C18.7138 66 20.8125 63.9013 20.8125 61.3125C20.8125 58.7237 18.7138 56.625 16.125 56.625C13.5362 56.625 11.4375 58.7237 11.4375 61.3125C11.4375 63.9013 13.5362 66 16.125 66Z" fill="white"/>
</svg>
