<svg width="76" height="82" viewBox="0 0 76 82" fill="none" xmlns="http://www.w3.org/2000/svg">
<path d="M63.3125 67.125C69.3531 67.125 74.25 62.2281 74.25 56.1875C74.25 50.1469 69.3531 45.25 63.3125 45.25C57.2719 45.25 52.375 50.1469 52.375 56.1875C52.375 62.2281 57.2719 67.125 63.3125 67.125Z" stroke="white" stroke-width="3" stroke-linecap="round" stroke-linejoin="round"/>
<path d="M13.3125 79.625C19.3531 79.625 24.25 74.7281 24.25 68.6875C24.25 62.6469 19.3531 57.75 13.3125 57.75C7.27189 57.75 2.375 62.6469 2.375 68.6875C2.375 74.7281 7.27189 79.625 13.3125 79.625Z" stroke="white" stroke-width="3" stroke-linecap="round" stroke-linejoin="round"/>
<path d="M74.25 20.25L24.25 32.75" stroke="white" stroke-width="3" stroke-linecap="round" stroke-linejoin="round"/>
<path d="M24.25 68.6875V14L74.25 1.5V56.1875" stroke="white" stroke-width="3" stroke-linecap="round" stroke-linejoin="round"/>
</svg>
