<svg width="78" height="69" viewBox="0 0 78 69" fill="none" xmlns="http://www.w3.org/2000/svg">
<path d="M70.25 67.25H7.75C6.0924 67.25 4.50268 66.5915 3.33058 65.4194C2.15848 64.2473 1.5 62.6576 1.5 61V17.25C1.5 15.5924 2.15848 14.0027 3.33058 12.8306C4.50268 11.6585 6.0924 11 7.75 11H20.25L26.5 1.625H51.5L57.75 11H70.25C71.9076 11 73.4973 11.6585 74.6694 12.8306C75.8415 14.0027 76.5 15.5924 76.5 17.25V61C76.5 62.6576 75.8415 64.2473 74.6694 65.4194C73.4973 66.5915 71.9076 67.25 70.25 67.25Z" stroke="white" stroke-width="3" stroke-linecap="round" stroke-linejoin="round"/>
<path d="M39 51.625C46.7665 51.625 53.0625 45.329 53.0625 37.5625C53.0625 29.796 46.7665 23.5 39 23.5C31.2335 23.5 24.9375 29.796 24.9375 37.5625C24.9375 45.329 31.2335 51.625 39 51.625Z" stroke="white" stroke-width="3" stroke-linecap="round" stroke-linejoin="round"/>
</svg>
