<svg width="92" height="58" viewBox="0 0 92 58" fill="none" xmlns="http://www.w3.org/2000/svg">
<path d="M5.375 2.4375H55.375C58.6902 2.4375 61.8696 3.75446 64.2138 6.09866C66.558 8.44287 67.875 11.6223 67.875 14.9375V52.4375C67.875 53.2663 67.5458 54.0612 66.9597 54.6472C66.3737 55.2333 65.5788 55.5625 64.75 55.5625H14.75C11.4348 55.5625 8.25537 54.2455 5.91117 51.9013C3.56696 49.5571 2.25 46.3777 2.25 43.0625V5.5625C2.25 4.7337 2.57924 3.93884 3.16529 3.35279C3.75134 2.76674 4.5462 2.4375 5.375 2.4375V2.4375Z" stroke="white" stroke-width="3" stroke-linecap="round" stroke-linejoin="round"/>
<path d="M67.875 22.75L89.75 10.25V47.75L67.875 35.25" stroke="white" stroke-width="3" stroke-linecap="round" stroke-linejoin="round"/>
</svg>
