<svg width="78" height="78" viewBox="0 0 78 78" fill="none" xmlns="http://www.w3.org/2000/svg">
<path d="M39 76.5C59.7107 76.5 76.5 59.7107 76.5 39C76.5 18.2893 59.7107 1.5 39 1.5C18.2893 1.5 1.5 18.2893 1.5 39C1.5 59.7107 18.2893 76.5 39 76.5Z" stroke="white" stroke-width="3" stroke-linecap="round" stroke-linejoin="round"/>
<path d="M12.4375 12.5166C19.449 19.5464 23.383 29.0722 23.375 39.001C23.383 48.9297 19.449 58.4555 12.4375 65.4854" stroke="white" stroke-width="3" stroke-linecap="round" stroke-linejoin="round"/>
<path d="M65.5632 12.5166C58.5598 19.5516 54.6279 29.0742 54.6279 39.001C54.6279 48.9277 58.5598 58.4503 65.5632 65.4854" stroke="white" stroke-width="3" stroke-linecap="round" stroke-linejoin="round"/>
<path d="M1.5 39H76.5" stroke="white" stroke-width="3" stroke-linecap="round" stroke-linejoin="round"/>
<path d="M39 1.5V76.5" stroke="white" stroke-width="3" stroke-linecap="round" stroke-linejoin="round"/>
</svg>
