<svg width="24" height="24" viewBox="0 0 24 24" fill="none" xmlns="http://www.w3.org/2000/svg">
<path fill-rule="evenodd" clip-rule="evenodd" d="M12 9C10.3431 9 9 10.3431 9 12C9 13.6569 10.3431 15 12 15C13.6569 15 15 13.6569 15 12C15 10.3431 13.6569 9 12 9ZM7.5 12C7.5 9.51472 9.51472 7.5 12 7.5C14.4853 7.5 16.5 9.51472 16.5 12C16.5 14.4853 14.4853 16.5 12 16.5C9.51472 16.5 7.5 14.4853 7.5 12Z" fill="#858584"/>
<path fill-rule="evenodd" clip-rule="evenodd" d="M7.875 4.125C5.80393 4.125 4.125 5.80393 4.125 7.875V16.125C4.125 18.1961 5.80393 19.875 7.875 19.875H16.125C18.1961 19.875 19.875 18.1961 19.875 16.125V7.875C19.875 5.80393 18.1961 4.125 16.125 4.125H7.875ZM2.625 7.875C2.625 4.97551 4.97551 2.625 7.875 2.625H16.125C19.0245 2.625 21.375 4.97551 21.375 7.875V16.125C21.375 19.0245 19.0245 21.375 16.125 21.375H7.875C4.97551 21.375 2.625 19.0245 2.625 16.125V7.875Z" fill="#858584"/>
<path d="M16.875 8.25C17.4963 8.25 18 7.74632 18 7.125C18 6.50368 17.4963 6 16.875 6C16.2537 6 15.75 6.50368 15.75 7.125C15.75 7.74632 16.2537 8.25 16.875 8.25Z" fill="#858584"/>
</svg>
