<svg width="24" height="24" viewBox="0 0 24 24" fill="none" xmlns="http://www.w3.org/2000/svg">
<path fill-rule="evenodd" clip-rule="evenodd" d="M10.1461 8.33875C10.39 8.20823 10.6859 8.22254 10.916 8.37596L15.416 11.376C15.6247 11.5151 15.75 11.7492 15.75 12C15.75 12.2508 15.6247 12.4849 15.416 12.624L10.916 15.624C10.6859 15.7775 10.39 15.7918 10.1461 15.6613C9.90224 15.5307 9.75 15.2766 9.75 15V9C9.75 8.7234 9.90224 8.46926 10.1461 8.33875ZM11.25 10.4014V13.5986L13.6479 12L11.25 10.4014Z" fill="#858584"/>
<path fill-rule="evenodd" clip-rule="evenodd" d="M11.9989 3.78714L11.9862 3.78711L11.9391 3.78713C11.8983 3.78722 11.8387 3.78752 11.7623 3.78833C11.6096 3.78995 11.3892 3.79363 11.1154 3.80185C10.5684 3.81826 9.80592 3.85287 8.94276 3.92575C7.2355 4.06989 5.06196 4.36904 3.38856 5.00843L3.37754 5.01274C3.04883 5.14431 2.75565 5.3513 2.52164 5.617C2.28762 5.8827 2.11933 6.19968 2.03033 6.54238L2.0296 6.5452C1.79605 7.45912 1.5 9.15388 1.5 11.9997C1.5 14.8454 1.79605 16.5402 2.0296 17.4541L2.03033 17.4569C2.11933 17.7996 2.28762 18.1166 2.52164 18.3823C2.75565 18.648 3.04883 18.855 3.37754 18.9866L3.38856 18.9909C5.06196 19.6303 7.2355 19.9294 8.94276 20.0736C9.80592 20.1464 10.5684 20.181 11.1154 20.1975C11.3892 20.2057 11.6096 20.2094 11.7623 20.211C11.8387 20.2118 11.8983 20.2121 11.9391 20.2122L11.9862 20.2122L11.9989 20.2122H12.0011L12.0138 20.2122L12.0609 20.2122C12.1017 20.2121 12.1613 20.2118 12.2377 20.211C12.3904 20.2094 12.6108 20.2057 12.8846 20.1975C13.4316 20.181 14.1941 20.1464 15.0572 20.0736C16.7645 19.9294 18.938 19.6303 20.6114 18.9909L20.6225 18.9866C20.9512 18.855 21.2444 18.648 21.4784 18.3823C21.7124 18.1166 21.8807 17.7996 21.9697 17.4569L21.9704 17.4541C22.204 16.5402 22.5 14.8454 22.5 11.9997C22.5 9.15388 22.204 7.45912 21.9704 6.5452L21.9697 6.54238C21.8807 6.19968 21.7124 5.8827 21.4784 5.617C21.2444 5.3513 20.9512 5.14431 20.6225 5.01274L20.6114 5.00843C18.938 4.36904 16.7645 4.06989 15.0572 3.92575C14.1941 3.85287 13.4316 3.81826 12.8846 3.80185C12.6108 3.79363 12.3904 3.78995 12.2377 3.78833C12.1613 3.78752 12.1017 3.78722 12.0609 3.78713L12.0138 3.78711L12.0011 3.78714H11.9989ZM11.9961 18.7122L12.0041 18.7121L12.0065 18.7122L12.0163 18.7122L12.0575 18.7122C12.0944 18.7121 12.1497 18.7118 12.2217 18.7111C12.3658 18.7095 12.5764 18.706 12.8396 18.6981C13.3662 18.6823 14.1008 18.649 14.931 18.5789C16.6081 18.4373 18.6031 18.1511 20.0697 17.5921C20.1783 17.5478 20.2752 17.4789 20.3527 17.3909C20.4311 17.3019 20.4875 17.1958 20.5175 17.0811C20.7152 16.3069 21 14.7394 21 11.9997C21 9.25985 20.7152 7.69239 20.5175 6.91824C20.4875 6.80351 20.4311 6.6974 20.3527 6.60841C20.2752 6.52037 20.1783 6.45151 20.0697 6.4072C18.6031 5.84819 16.6081 5.56202 14.931 5.42043C14.1008 5.35034 13.3662 5.31698 12.8396 5.30117C12.5764 5.29327 12.3658 5.28977 12.2217 5.28825C12.1497 5.28748 12.0944 5.28721 12.0575 5.28713L12.0163 5.28711L12.0065 5.28713L12.0043 5.28714L11.9959 5.28719L11.9935 5.28713L11.9837 5.28711L11.9425 5.28713C11.9056 5.28721 11.8503 5.28748 11.7783 5.28825C11.6342 5.28977 11.4236 5.29327 11.1604 5.30117C10.6338 5.31698 9.89916 5.35034 9.06896 5.42043C7.39192 5.56202 5.39693 5.84819 3.93029 6.40721C3.82171 6.45151 3.72484 6.52037 3.6473 6.60841C3.56892 6.6974 3.51247 6.80351 3.48248 6.91824C3.2848 7.69239 3 9.25985 3 11.9997C3 14.7394 3.2848 16.3069 3.48248 17.0811C3.51247 17.1958 3.56891 17.3019 3.6473 17.3909C3.72484 17.4789 3.8217 17.5478 3.93028 17.5921C5.39692 18.1511 7.39192 18.4373 9.06896 18.5789C9.89916 18.649 10.6338 18.6823 11.1604 18.6981C11.4236 18.706 11.6342 18.7095 11.7783 18.7111C11.8503 18.7118 11.9056 18.7121 11.9425 18.7122L11.9837 18.7122L11.9935 18.7122L11.9961 18.7122Z" fill="#858584"/>
</svg>
